HIERARCHY
ROOT hips
{
  OFFSET 0 11.86390953 0.3628582958
  CHANNELS 6 Xposition Yposition Zposition Yrotation Xrotation Zrotation
  JOINT spine
  {
    OFFSET 0 0.05383551117999996 0
    CHANNELS 3 Yrotation Xrotation Zrotation
    JOINT chest
    {
      OFFSET 0 0.6394558760401424 0
      CHANNELS 3 Yrotation Xrotation Zrotation
      JOINT neck
      {
        OFFSET 0 2.720089088562982 0
        CHANNELS 3 Yrotation Xrotation Zrotation
        JOINT head
        {
          OFFSET 0 0.37880844870545777 0
          CHANNELS 3 Yrotation Xrotation Zrotation
          JOINT rightEye
          {
            OFFSET -0.42867780714 0.7547055649100001 0.7381831347
            CHANNELS 3 Yrotation Xrotation Zrotation
            End Site
            {
              OFFSET -0.42867780714 0.7547055649100001 0.7381831347
            }
          }
          JOINT leftEye
          {
            OFFSET 0.428676479 0.7547055559999993 0.7381844503
            CHANNELS 3 Yrotation Xrotation Zrotation
            End Site
            {
              OFFSET 0.428676479 0.7547055559999993 0.7381844503
            }
          }
          JOINT jaw
          {
            OFFSET -0.18933892286100001 1.5626303011000007 1.137441874206
            CHANNELS 3 Yrotation Xrotation Zrotation
            End Site
            {
              OFFSET -0.18933892286100001 1.5626303011000007 1.137441874206
            }
          }
        }
      }
      JOINT rightShoulder
      {
        OFFSET -0.6795351508 2.0665205 0
        CHANNELS 3 Yrotation Xrotation Zrotation
        JOINT rightUpperArm
        {
          OFFSET -0.7287400483531672 0 0
          CHANNELS 3 Yrotation Xrotation Zrotation
          JOINT rightLowerArm
          {
            OFFSET -1.9872982039174532 0 0
            CHANNELS 3 Yrotation Xrotation Zrotation
            JOINT rightHand
            {
              OFFSET -2.6451847532219275 0 0
              CHANNELS 3 Yrotation Xrotation Zrotation
              JOINT rightLittleProximal
              {
                OFFSET -0.8008804099999995 -0.09592044000000044 -0.26183688629999996
                CHANNELS 3 Yrotation Xrotation Zrotation
                JOINT rightLittleIntermediate
                {
                  OFFSET -0.2473955153999997 -0.02541697026000067 0.002370178700999967
                  CHANNELS 3 Yrotation Xrotation Zrotation
                  JOINT rightLittleDistal
                  {
                    OFFSET -0.163687229200001 -0.015790700860001117 -0.0004274845300000635
                    CHANNELS 3 Yrotation Xrotation Zrotation
                    End Site
                    {
                      OFFSET -0.163687229200001 -0.015790700860001117 -0.0004274845300000635
                    }
                  }
                }
              }
              JOINT rightRingProximal
              {
                OFFSET -0.8393382799999985 -0.06223833561000025 -0.09213143500000005
                CHANNELS 3 Yrotation Xrotation Zrotation
                JOINT rightRingIntermediate
                {
                  OFFSET -0.3284497260000011 -0.03264224524000103 0.009408593183000052
                  CHANNELS 3 Yrotation Xrotation Zrotation
                  JOINT rightRingDistal
                  {
                    OFFSET -0.19447660429999902 -0.021730899850000318 0.003074347969000052
                    CHANNELS 3 Yrotation Xrotation Zrotation
                    End Site
                    {
                      OFFSET -0.19447660429999902 -0.021730899850000318 0.003074347969000052
                    }
                  }
                }
              }
              JOINT rightMiddleProximal
              {
                OFFSET -0.8473005199999989 -0.06735503500000095 0.10541820299999995
                CHANNELS 3 Yrotation Xrotation Zrotation
                JOINT rightMiddleIntermediate
                {
                  OFFSET -0.3450455799999995 -0.02481901642000084 0.019012570390000032
                  CHANNELS 3 Yrotation Xrotation Zrotation
                  JOINT rightMiddleDistal
                  {
                    OFFSET -0.23542332000000088 -0.025003910029999243 0.0075583457949999905
                    CHANNELS 3 Yrotation Xrotation Zrotation
                    End Site
                    {
                      OFFSET -0.23542332000000088 -0.025003910029999243 0.0075583457949999905
                    }
                  }
                }
              }
              JOINT rightIndexProximal
              {
                OFFSET -0.8008568281999987 -0.09897839600000169 0.29462796
                CHANNELS 3 Yrotation Xrotation Zrotation
                JOINT rightIndexIntermediate
                {
                  OFFSET -0.30524754480000016 -0.024634122809999992 0.02743375304999998
                  CHANNELS 3 Yrotation Xrotation Zrotation
                  JOINT rightIndexDistal
                  {
                    OFFSET -0.23067378950000017 -0.016876459159999913 0.008484125099999983
                    CHANNELS 3 Yrotation Xrotation Zrotation
                    End Site
                    {
                      OFFSET -0.23067378950000017 -0.016876459159999913 0.008484125099999983
                    }
                  }
                }
              }
              JOINT rightThumbProximal
              {
                OFFSET -0.25574064999999935 -0.12833189930000155 0.22385698609999993
                CHANNELS 3 Yrotation Xrotation Zrotation
                JOINT rightThumbIntermediate
                {
                  OFFSET -0.22791743260000086 -0.07103586192999978 0.27385039
                  CHANNELS 3 Yrotation Xrotation Zrotation
                  JOINT rightThumbDistal
                  {
                    OFFSET -0.13610267659999975 -0.03369390969999997 0.14246511509999996
                    CHANNELS 3 Yrotation Xrotation Zrotation
                    End Site
                    {
                      OFFSET -0.13610267659999975 -0.03369390969999997 0.14246511509999996
                    }
                  }
                }
              }
            }
          }
        }
      }
      JOINT leftShoulder
      {
        OFFSET 0.6795338396 2.0665205 0
        CHANNELS 3 Yrotation Xrotation Zrotation
        JOINT leftUpperArm
        {
          OFFSET 0.7287383950230443 0 0
          CHANNELS 3 Yrotation Xrotation Zrotation
          JOINT leftLowerArm
          {
            OFFSET 1.9872997282019604 0 0
            CHANNELS 3 Yrotation Xrotation Zrotation
            JOINT leftHand
            {
              OFFSET 2.6451820781302327 0 0
              CHANNELS 3 Yrotation Xrotation Zrotation
              JOINT leftLittleProximal
              {
                OFFSET 0.8008804099999995 -0.09592306899999814 -0.2618342639000001
                CHANNELS 3 Yrotation Xrotation Zrotation
                JOINT leftLittleIntermediate
                {
                  OFFSET 0.2473981400000007 -0.02542352681000093 0.0023609995859999455
                  CHANNELS 3 Yrotation Xrotation Zrotation
                  JOINT leftLittleDistal
                  {
                    OFFSET 0.1636846068000002 -0.015794634789999318 -0.00043272972159996703
                    CHANNELS 3 Yrotation Xrotation Zrotation
                    End Site
                    {
                      OFFSET 0.1636846068000002 -0.015794634789999318 -0.00043272972159996703
                    }
                  }
                }
              }
              JOINT leftRingProximal
              {
                OFFSET 0.8393409199999996 -0.062242267999998324 -0.0921281570000001
                CHANNELS 3 Yrotation Xrotation Zrotation
                JOINT leftRingIntermediate
                {
                  OFFSET 0.3284471036000003 -0.03264224524000103 0.009405970574000042
                  CHANNELS 3 Yrotation Xrotation Zrotation
                  JOINT leftRingDistal
                  {
                    OFFSET 0.1944779099999996 -0.021732211159998904 0.003073036670000001
                    CHANNELS 3 Yrotation Xrotation Zrotation
                    End Site
                    {
                      OFFSET 0.1944779099999996 -0.021732211159998904 0.003073036670000001
                    }
                  }
                }
              }
              JOINT leftMiddleProximal
              {
                OFFSET 0.8473005200000001 -0.06736028199999788 0.1054214809999999
                CHANNELS 3 Yrotation Xrotation Zrotation
                JOINT leftMiddleIntermediate
                {
                  OFFSET 0.3450455799999995 -0.024824261000000014 0.019013225990000007
                  CHANNELS 3 Yrotation Xrotation Zrotation
                  JOINT leftMiddleDistal
                  {
                    OFFSET 0.2354259489999998 -0.025005222000000327 0.0075590014499999705
                    CHANNELS 3 Yrotation Xrotation Zrotation
                    End Site
                    {
                      OFFSET 0.2354259489999998 -0.025005222000000327 0.0075590014499999705
                    }
                  }
                }
              }
              JOINT leftIndexProximal
              {
                OFFSET 0.8008594516999996 -0.09898495199999946 0.29463124239999994
                CHANNELS 3 Yrotation Xrotation Zrotation
                JOINT leftIndexIntermediate
                {
                  OFFSET 0.30524754480000016 -0.024632811499998963 0.02743047472
                  CHANNELS 3 Yrotation Xrotation Zrotation
                  JOINT leftIndexDistal
                  {
                    OFFSET 0.23067378950000017 -0.016876459159999913 0.008481502700000004
                    CHANNELS 3 Yrotation Xrotation Zrotation
                    End Site
                    {
                      OFFSET 0.23067378950000017 -0.016876459159999913 0.008481502700000004
                    }
                  }
                }
              }
              JOINT leftThumbProximal
              {
                OFFSET 0.25574326469999953 -0.12833321050000013 0.22385764169999997
                CHANNELS 3 Yrotation Xrotation Zrotation
                JOINT leftThumbIntermediate
                {
                  OFFSET 0.22804987480000094 -0.07138466829999968 0.273648441
                  CHANNELS 3 Yrotation Xrotation Zrotation
                  JOINT leftThumbDistal
                  {
                    OFFSET 0.13614857189999907 -0.033867001519998885 0.14238119169999996
                    CHANNELS 3 Yrotation Xrotation Zrotation
                    End Site
                    {
                      OFFSET 0.13614857189999907 -0.033867001519998885 0.14238119169999996
                    }
                  }
                }
              }
            }
          }
        }
      }
    }
  }
  JOINT rightUpperLeg
  {
    OFFSET -0.9749898906000001 -1.8495733739999998 0
    CHANNELS 3 Yrotation Xrotation Zrotation
    JOINT rightLowerLeg
    {
      OFFSET 0 -4.1566544686813165 0
      CHANNELS 3 Yrotation Xrotation Zrotation
      JOINT rightFoot
      {
        OFFSET 0.14539718599999998 -4.225553926 -0.3666210900000001
        CHANNELS 3 Yrotation Xrotation Zrotation
        JOINT rightToes
        {
          OFFSET 0.1706738473 -0.9584117400000015 1.0093348617
          CHANNELS 3 Yrotation Xrotation Zrotation
          End Site
          {
            OFFSET 0.1706738473 -0.9584117400000015 1.0093348617
          }
        }
      }
    }
  }
  JOINT leftUpperLeg
  {
    OFFSET 0.9749898906000001 -1.8495733739999998 0
    CHANNELS 3 Yrotation Xrotation Zrotation
    JOINT leftLowerLeg
    {
      OFFSET 0 -4.156653488267941 0
      CHANNELS 3 Yrotation Xrotation Zrotation
      JOINT leftFoot
      {
        OFFSET -0.14537357999999995 -4.225555399999999 -0.36661124279999996
        CHANNELS 3 Yrotation Xrotation Zrotation
        JOINT leftToes
        {
          OFFSET -0.17066467000000002 -0.9584157000000019 1.0093348617
          CHANNELS 3 Yrotation Xrotation Zrotation
          End Site
          {
            OFFSET -0.17066467000000002 -0.9584157000000019 1.0093348617
          }
        }
      }
    }
  }
}
MOTION
Frames: 4
Frame Time: 0.03333333333333333
0.01654491014778614 -0.10137538845947347 0.010003131814301014 -5.277559662382033 -3.7356373199241437 -3.3573318812176183 1.5809893015612253 3.2948124577971862 2.8133972930685274 0.7719027037126737 2.266536875356769 3.1226471946091787 -0.07344083658081593 5.626283907223583 0.44846516140465376 1.386631364202692 -7.56094249375853 -0.2808219270197175 0 0 0 0 0 0 0 0 0 15.533587405753716 1.1620348588468263 14.831107819955877 28.797006770226318 11.307927265223654 64.73356381317384 6.693173344896646 0.005047438516403563 -0.08626578863449025 -0.4546276114023735 -20.184004271956105 6.945696224373588 -4.502141476710624 0.6446770588794328 26.474277811915233 -1.0868209269614755 0.13364417817989782 17.448561199609966 -1.1785746326198026 0.13418105652741613 16.54877291727521 -2.8003137972735677 -0.02142953892765897 20.487186944479408 -1.4286058374644548 0.2623763107209292 20.96098839417551 -1.2185336079671634 0.19641468058136513 17.90939908341203 -2.0690286446875485 -0.14598241806538426 15.03184053337171 -1.081039329455804 0.16857362080958574 17.44790127211463 -1.2794227240670324 0.200931090281489 18.459029645509773 1.3314121192901507 0.03574271575028852 6.808091998469356 -1.145818553105685 0.17678966867152981 17.41883433088342 -0.5602729875663706 0.038713855336865964 8.06067818397238 -0.9734407208264922 -1.4068795554810007 -4.35501818299452 -29.583259479985163 10.853425489336267 -21.782655261990428 -3.0046595577215647 -15.647491708101887 -11.768746655358273 -17.60141382681891 1.0179227022304882 -12.414009352017331 -20.7177277431995 3.2272399775083183 -70.88978572208602 -1.4592415475764422 0.0002484976618126029 0.018847348836806135 -1.7268043499748726 -33.22256245414865 -5.222306568977391 5.427220852460743 0.9522872594141668 -27.11326723269938 1.5006277631950158 0.2978824602032786 -17.418527875517555 1.4412822183488336 0.2690501976830543 -16.518959362941594 3.375339700940968 0.08841678720702856 -21.170539845301192 1.8304697789883273 0.33829966110111676 -20.924796719721346 1.5734474312757372 0.24773808307403802 -17.87893192118638 2.46189216701359 -0.10415901481108882 -15.733133257367317 1.5367639809145452 0.234699136365484 -17.419556992479354 1.6224406902196133 0.26318796451046084 -18.42722495536055 -1.0723518653805466 0.012817076868051927 -7.580567178077452 1.5434461708750675 0.23634992165776783 -17.389834933721897 0.7098128665491326 0.050384911278686204 -8.047131772042334 2.8673989235157955 -0.4462976378956592 4.915272466155188 25.181594157320312 10.521073738901302 21.570380045672238 3.0283556960365083 -13.946160520704563 8.181877066820828 -10.345436913112945 0.648988196826479 3.5328730715333974 -9.88455257759772 7.228593913373669 -4.406454631739741 -1.61192363130248 -3.6484581229105952 3.325630770191837 -2.780551661385281e-7 -7.2828752332583875 -0.0000025652224114654176 15.124849528090452 -10.397614852579087 7.359365319773377 2.1332857885762597 12.126977483761168 4.590062307481395 0.421921652218897 1.2817135610304804 -7.107209661947937 0.000007924400333763666 -4.928524695161564 8.000806891761368e-7
0.012936323881149292 -0.10082035000732503 0.007281733211129904 -5.262902919657887 -3.7457577427808397 -3.3566585742848165 1.5813589032236592 3.2977348507188857 2.8113030957808807 0.7735202988493775 2.2734602227169325 3.118693081758349 -0.0715240654218992 5.6312207516287325 0.4425744022640437 1.3957907694683132 -7.5751397688132345 -0.2918177587292176 0 0 0 0 0 0 0 0 0 15.546482622382742 1.1620505501646838 14.830560162121378 28.78547131867617 11.31078483680225 64.75089334681476 6.6836312605116115 0.005034585637795426 -0.08612953852081637 -0.47097272920265454 -20.16913245097149 6.959058561229411 -4.501389886741495 0.64389703397677 26.445550942329355 -1.0919024990880202 0.13501726342026138 17.525223261506714 -1.1836412620748338 0.1355486589550265 16.625454616021866 -2.798473479530904 -0.021759247323455244 20.466373401136448 -1.428638271118595 0.26240317819209713 20.961421282849038 -1.2185595356297139 0.19642043024704942 17.909824072031252 -2.067230610873449 -0.14691434172491022 15.051244463914866 -1.0809516617214774 0.16856145448247262 17.44657112673388 -1.2793275818964462 0.20090589046377208 18.457732080687155 1.3324334058735607 0.038465263742131064 6.776899538541147 -1.1426739931587047 0.17583289070900032 17.370691862400566 -0.557003262974592 0.03825294419594908 8.01249415159438 -0.9621103628836316 -1.411766433283603 -4.372950917555648 -29.565964860364144 10.847395918697439 -21.777138738947855 -3.012067586511861 -15.644157995741372 -11.769164147260156 -17.61259763443396 1.0172237782774236 -12.421634090442751 -20.668620840268055 3.233762287115666 -70.88086503421043 -1.4458970506279265 0.00021892394634880546 0.018681861832138408 -1.7182591744920717 -33.20167141774601 -5.215821592946334 5.4278933384168 0.9526463208440097 -27.117199215580747 1.5004597663903958 0.2978076205959018 -17.41659712401882 1.4411236991057002 0.2690112438310282 -16.51701860110674 3.3677096482910946 0.08576673744840353 -21.153726401223466 1.8300166389543795 0.3381182844022274 -20.919373274306317 1.573019366190449 0.24760860175476518 -17.873779192506657 2.4563069213451376 -0.10571643395615363 -15.734110381005273 1.536783077388839 0.23470388552123614 -17.419804928034303 1.6224574389869468 0.26317838613631794 -18.42750088469965 -1.0732826352632023 0.013438220557380013 -7.572927487261349 1.54415745092207 0.23656411394530297 -17.398142199597977 0.710543341076327 0.05047831615280073 -8.055409840244609 2.8607603007298237 -0.45040785675246525 4.912472824623892 25.168329848242255 10.516425373818592 21.569251531106687 3.0290494548892903 -13.945926519282411 8.181717521319094 -10.344936690458274 0.6765072160515528 3.555913815016455 -9.888901135521909 7.178732696502181 -4.401999982369938 -1.620005335991124 -3.62067893838551 3.2986781380229533 0.000016639590193918742 -7.278717125848889 -0.0000036428184765737837 15.150927896412119 -10.368597170963262 7.377016898840457 2.090442496459241 12.043188130301928 4.571962858306824 0.41741965067419895 1.3433301394211659 -7.113772017863986 0.000013902276969124695 -4.922415154802152 -0.0000018499169792629115
0.0046707806177437305 -0.0996711724560555 0.001510212547145784 -5.22886171913215 -3.765075725073299 -3.3605403033157955 1.5804424300095175 3.302555139502384 2.8085648571686384 0.7708189696445709 2.284578960410152 3.112469965960831 -0.06729292213496817 5.649526348539389 0.4326112524879967 1.4190003711762245 -7.581592603861336 -0.31905489174714036 0 0 0 0 0 0 0 0 0 15.5603765113813 1.1605654260246152 14.838147436270052 28.778702161538888 11.31787229459587 64.77956791479903 6.66972604692844 0.005018604896056481 -0.08597661982841001 -0.4854483123772444 -20.15223396188161 6.983553143840659 -4.502229732687432 0.6435518208319156 26.41307737975883 -1.0981144015163373 0.13672409514049028 17.61923120450662 -1.1898591374949519 0.13724684622989763 16.719442806029058 -2.795166758147376 -0.022547610628158486 20.440447189819974 -1.4287214675036501 0.262426150280202 20.962785532297627 -1.2186434004113351 0.19644823141479423 17.911168132225793 -2.0705889334316447 -0.14623800404155923 15.06158636927788 -1.0811629984290745 0.16861877762684296 17.449922670587238 -1.2795511553170247 0.20098116974995234 18.4610658999456 1.3458063416950767 0.03880360164185588 6.738210108295405 -1.1374113490717437 0.17420152176322048 17.29032526905236 -0.5515590602691846 0.03747348537230435 7.932106090240431 -0.9539391778568312 -1.414262879507208 -4.399931148266353 -29.55440451152718 10.843378880373974 -21.77347829109081 -3.0162934763152216 -15.642257094713038 -11.769331513467796 -17.633018980054906 1.0163573817668696 -12.432384090275757 -20.59583536480092 3.2628822006023057 -70.87137541608277 -1.4307215258736927 0.0002179776510284186 0.018491755464756926 -1.7197208840332086 -33.18336830569165 -5.212504311176779 5.428447223423085 0.952816031818223 -27.111747415206985 1.4998460849717696 0.2975998839914212 -17.4092522371218 1.4404882559799108 0.2687861652747693 -16.5096108264982 3.3523059332426826 0.08019757945097299 -21.13179204014751 1.829764785967843 0.3380310378889643 -20.916337398124583 1.5727915182755752 0.24752797275337593 -17.871254674233022 2.453615877430094 -0.10655419411379416 -15.737053766092409 1.5364123950357715 0.23459254716798805 -17.415445529004682 1.6220912363466862 0.26305554815771126 -18.423131910426047 -1.0751502570593963 0.013088952088004696 -7.573017701800128 1.5433858024896616 0.23633201893931557 -17.389103138411517 0.7097501723329749 0.050375756553823044 -8.046387032748362 2.8450195180927875 -0.46004534442693595 4.90904464252911 25.148367019381386 10.509443839872405 21.567526597479127 3.0294835896648267 -13.945769052293569 8.181672698281039 -10.32123956181825 0.7398384224081057 3.6187551492706422 -9.937544326167332 7.057470645221626 -4.401804499572376 -1.6233425597018518 -3.5562222087437227 3.2420528274396085 0.000007558678465376299 -7.2739350487298005 -0.000004382177420987839 15.227747601049673 -10.315753197776306 7.419869368945687 1.9883975051407317 11.866137981987716 4.533608188043861 0.3928215231181622 1.4744748697518464 -7.1299634043835045 0.0000046795986501757 -4.906782287889756 -4.257820990670779e-7
-0.0054754107259213924 -0.09878807003906331 -0.004800429102033377 -5.18823546466306 -3.784601628575714 -3.3730152848952097 1.5779251352203307 3.307369251500925 2.8059437810932684 0.7624180108027666 2.295767209014428 3.1047077656754234 -0.06464453741535464 5.677871267145398 0.42428492947733154 1.4377416681181483 -7.5656148649489205 -0.3530877834064113 0 0 0 0 0 0 0 0 0 15.560078611443936 1.156861105189423 14.858386639452656 28.794972647600225 11.325915117416743 64.80251048902994 6.665295584344544 0.00501426390728085 -0.08591364075217046 -0.48195936583095633 -20.15492413709843 7.001826564249621 -4.504417620347747 0.6442298666445139 26.41136363853024 -1.0983048240628166 0.13677350743100355 17.62221647025853 -1.1900530804953058 0.1372956048491643 16.722393972194382 -2.787903080558203 -0.025295526371603295 20.44337304248936 -1.4285653169439467 0.26235960859886187 20.960308847757375 -1.2184884020049351 0.19640526233549221 17.908588002680368 -2.07296576313153 -0.1451387935989283 15.040786507087999 -1.0816086774735838 0.1687573830429485 17.456513497359857 -1.2799787005937562 0.20111626692097084 18.467635804591815 1.3512283175448243 0.03724124555094613 6.742712122626694 -1.135059773286077 0.17348670982779965 17.254315020883162 -0.5491057848029698 0.03712516232609077 7.896128860042974 -0.9570665758030675 -1.4116520996336834 -4.411649367164069 -29.558186126514038 10.844696734218967 -21.774644622827786 -3.0125057631132317 -15.643948753904999 -11.769169932897412 -17.657280142335317 1.0165966894899217 -12.435458586269384 -20.541275880496947 3.304893456207012 -70.86827549870004 -1.4252833847218322 0.00022519540986974974 0.018407158506334495 -1.7391417644730296 -33.18559222554385 -5.216064036210511 5.4288418063262665 0.9528151779265078 -27.10010743019693 1.4994708134782497 0.2974542068989099 -17.404846365572514 1.4401233348972506 0.2686665289267346 -16.50523080149033 3.3444835014999117 0.07721217031688853 -21.129535551238334 1.8299205276751493 0.3381055576172164 -20.91811615990246 1.5729798936706927 0.24759253998806943 -17.873368251250003 2.456489540823213 -0.10584186552474245 -15.741656848753577 1.5359047452497503 0.23441520088799594 -17.40955449398404 1.6215918103452183 0.262887326297137 -18.417256933221665 -1.0716438486103295 0.014155472149836881 -7.583623054390741 1.5420748191811142 0.2359108648315575 -17.373780866834704 0.7083867484377063 0.05017110426399335 -8.031071026276615 2.839407992147042 -0.46354454265012823 4.906458536396411 25.147859868359525 10.509250200073668 21.56747965076493 3.0297915956514325 -13.94565117204824 8.181642068867788 -10.285491166200044 0.7986974423751503 3.703689092733166 -10.009220905318301 6.946620638054667 -4.4086532444426245 -1.624353602236286 -3.499850193199996 3.177753160389999 0.000003157838443369253 -7.272246357643912 -0.000006042982466779174 15.332121514246383 -10.279166231347142 7.475384302008952 1.866847788075662 11.695262173658037 4.499021447076454 0.34910065464423046 1.6082111152901 -7.156633728475693 0.0000015924745777662972 -4.894237183509163 -0.000003797083227137835
